<svg width="115" height="52" viewBox="0 0 115 52" fill="none" xmlns="http://www.w3.org/2000/svg">
<path d="M29.12 39.104C28.544 42.944 27.072 46.08 24.64 48.384C22.208 50.688 19.072 51.84 15.232 51.84C10.624 51.84 6.91205 50.304 4.16005 47.168C1.34405 44.096 4.50611e-05 39.936 4.50611e-05 34.752C4.50611e-05 29.376 1.34405 25.088 4.16005 21.888C6.97605 18.688 10.688 17.024 15.36 17.024C19.136 17.024 22.208 18.048 24.576 20.032C26.944 22.08 28.352 24.832 28.864 28.352H24.768C23.68 23.04 20.544 20.352 15.424 20.352C11.968 20.352 9.21605 21.632 7.16805 24.192C5.12005 26.752 4.16005 30.144 4.16005 34.432C4.16005 38.784 5.12005 42.176 7.10404 44.736C9.02404 47.296 11.712 48.512 15.04 48.512C17.792 48.512 20.032 47.744 21.824 46.08C23.552 44.416 24.64 42.112 25.088 39.104H29.12ZM63.5875 47.616V50.688C62.5635 51.072 61.5395 51.2 60.3875 51.2C58.5955 51.2 57.4435 50.688 56.9315 49.6C56.3555 48.576 56.0995 47.104 56.0995 45.184C53.2835 49.6 49.1875 51.776 43.6835 51.776C40.2915 51.776 37.6675 51.008 35.7475 49.344C33.8275 47.744 32.9315 45.504 32.9315 42.56C32.9315 36.672 36.9635 33.28 45.1555 32.384C45.5395 32.384 46.1795 32.32 46.9475 32.256C47.7155 32.192 48.2275 32.128 48.6115 32.064C48.9955 32.064 49.4435 32 50.0195 31.936C50.5955 31.872 51.0435 31.808 51.2995 31.744C51.5555 31.744 51.9395 31.68 52.3235 31.552C52.7075 31.488 53.0275 31.424 53.2835 31.296C53.5395 31.232 53.7955 31.168 54.0515 31.04C54.3075 30.912 54.4995 30.784 54.7555 30.656C55.5235 30.144 55.9075 29.12 55.9075 27.52C55.9075 24.96 55.1395 23.104 53.7315 22.016C52.2595 20.992 50.1475 20.416 47.3315 20.416C44.5155 20.416 42.4035 21.056 40.9315 22.336C39.4595 23.616 38.6275 25.536 38.3715 28.16H34.5315C34.6595 24.64 35.9395 21.888 38.2435 19.968C40.5475 18.048 43.6835 17.088 47.7795 17.088C51.4915 17.088 54.4355 17.92 56.6115 19.52C58.7875 21.184 59.8755 23.488 59.8755 26.56V44.48C59.8755 45.376 59.8755 45.952 59.9395 46.336C59.9395 46.72 60.1315 47.04 60.4515 47.36C60.7715 47.68 61.2835 47.808 62.0515 47.808C62.5635 47.808 63.0755 47.744 63.5875 47.616ZM55.9075 32.96C55.5235 33.408 54.8835 33.792 53.9875 34.048C53.0915 34.304 52.3235 34.496 51.6195 34.624C50.8515 34.752 49.6355 34.944 47.9075 35.136C47.4595 35.2 47.1395 35.264 46.9475 35.264C45.5395 35.456 44.4515 35.648 43.5555 35.84C42.6595 36.096 41.6995 36.416 40.5475 36.928C39.3955 37.44 38.5635 38.08 37.9875 38.976C37.4115 39.872 37.1555 40.896 37.1555 42.176C37.1555 44.096 37.7955 45.632 39.2035 46.784C40.5475 47.936 42.4035 48.448 44.7075 48.448C47.7795 48.448 50.4675 47.552 52.6435 45.696C54.8195 43.84 55.9075 41.408 55.9075 38.336V32.96ZM70.599 45.44C70.2577 46.6773 70.151 47.6587 70.279 48.384C70.407 49.0667 70.8764 49.408 71.687 49.408C72.5404 49.408 73.3297 48.9387 74.055 48C74.823 47.0187 75.6337 45.312 76.487 42.88L77.319 40.512H78.535L76.935 45.184C76.3804 46.8053 75.6977 48.1067 74.887 49.088C74.119 50.0267 73.2657 50.7093 72.327 51.136C71.3884 51.5627 70.3644 51.776 69.255 51.776C67.847 51.776 66.8017 51.4987 66.119 50.944C65.479 50.432 65.0737 49.728 64.903 48.832C64.775 47.936 64.7964 46.976 64.967 45.952C65.1804 44.8853 65.4364 43.84 65.735 42.816L76.167 8.192C76.5937 6.74134 76.551 5.67467 76.039 4.992C75.527 4.30934 74.2257 3.968 72.135 3.968L72.583 2.624C74.9297 2.58134 76.999 2.34667 78.791 1.92C80.583 1.45067 82.311 0.81067 83.975 3.8147e-06L70.599 45.44ZM107.229 28.736C105.693 33.0027 104.221 36.608 102.813 39.552C101.405 42.496 99.997 44.864 98.589 46.656C97.2237 48.448 95.8157 49.7493 94.365 50.56C92.957 51.3707 91.485 51.776 89.949 51.776C88.0717 51.776 86.7064 51.3493 85.853 50.496C84.9997 49.6427 84.573 48.4907 84.573 47.04C84.573 45.5893 84.8717 43.9467 85.469 42.112L91.677 23.424C92.1037 22.144 92.253 21.1627 92.125 20.48C91.997 19.7973 91.5064 19.456 90.653 19.456C89.8424 19.456 89.0317 19.904 88.221 20.8C87.453 21.696 86.621 23.424 85.725 25.984L84.893 28.352H83.677L85.277 23.68C85.917 21.888 86.6637 20.5227 87.517 19.584C88.413 18.6453 89.3304 18.0053 90.269 17.664C91.2504 17.28 92.1677 17.088 93.021 17.088C94.8984 17.088 96.1357 17.536 96.733 18.432C97.373 19.2853 97.6077 20.3947 97.437 21.76C97.309 23.1253 96.989 24.5547 96.477 26.048L90.397 44.352C89.2024 47.936 89.6717 49.728 91.805 49.728C92.829 49.728 93.917 49.28 95.069 48.384C96.221 47.4453 97.3944 46.1227 98.589 44.416C99.7837 42.6667 100.957 40.5973 102.109 38.208C103.304 35.776 104.434 33.088 105.501 30.144C106.61 27.1573 107.613 23.9573 108.509 20.544L107.229 28.736ZM107.037 45.44C106.738 46.592 106.589 47.552 106.589 48.32C106.632 49.0453 107.08 49.408 107.933 49.408C108.872 49.408 109.725 48.9173 110.493 47.936C111.304 46.912 112.114 45.2267 112.925 42.88L113.757 40.512H114.973L113.373 45.184C112.776 46.976 112.029 48.3413 111.133 49.28C110.28 50.2187 109.362 50.8587 108.381 51.2C107.442 51.584 106.525 51.776 105.629 51.776C104.946 51.776 104.306 51.6267 103.709 51.328C103.112 51.0293 102.664 50.6027 102.365 50.048C102.024 49.3227 101.896 48.4053 101.981 47.296C102.109 46.1867 102.408 44.6933 102.877 42.816L109.149 17.984C110.216 17.9413 111.24 17.856 112.221 17.728C113.245 17.6 114.162 17.3867 114.973 17.088L107.037 45.44Z" fill="#363636"/>
</svg>